<svg width="206" height="67" viewBox="0 0 206 67" fill="none" xmlns="http://www.w3.org/2000/svg">
<path d="M77.7217 44H74.2577V36.0412L66.7526 23.8351H70.5052L75.9897 32.9897L81.5155 23.8351H85.2268L77.7217 36.0412V44ZM90.6573 39.4227L88.6367 44H85.0078L93.915 23.8351H97.5439L106.41 44H102.781L100.76 39.4227H90.6573ZM99.3996 36.2474L95.7295 27.9588L92.0594 36.2474H99.3996ZM118.414 44H114.62L106.497 23.8351H110.332L116.517 38.8866L122.744 23.8351H126.538L118.414 44ZM132.259 39.4227L130.238 44H126.609L135.517 23.8351H139.145L148.011 44H144.383L142.362 39.4227H132.259ZM141.001 36.2474L137.331 27.9588L133.661 36.2474H141.001ZM158.737 44H155.273V36.0412L147.768 23.8351H151.521L157.005 32.9897L162.531 23.8351H166.242L158.737 36.0412V44ZM183.013 23.8351V27.0103H172.25V32.3711H181.9V35.3814H172.25V40.7835H183.343V44H168.828V23.8351H183.013ZM199.447 36.6598L204.726 44H200.396L195.571 37.1959H191.117V44H187.695V23.8351H195.2C198.251 23.8351 200.437 24.3574 201.757 25.4021C203.104 26.4192 203.777 28.0825 203.777 30.3918C203.777 33.7182 202.334 35.8076 199.447 36.6598ZM195.324 34.1443C197.221 34.1443 198.526 33.8557 199.241 33.2783C199.956 32.701 200.313 31.7251 200.313 30.3505C200.313 29.0309 199.956 28.1375 199.241 27.6701C198.526 27.1753 197.248 26.9278 195.406 26.9278H191.117V34.1443H195.324Z" fill="white"/>
<rect x="18.2108" width="52.0381" height="52" rx="10" transform="rotate(20.5 18.2108 0)" fill="white" fill-opacity="0.3"/>
<rect x="10.9618" y="10.9764" width="45" height="45" rx="10" fill="white"/>
<path d="M42 27V29H24V27H42ZM24 39H33V37H24V39ZM24 34H42V32H24V34Z" fill="#6FBAFF"/>
</svg>
